<svg width="56" height="64" viewBox="0 0 56 64" fill="none" xmlns="http://www.w3.org/2000/svg">
<path d="M0 6C0 -0.627417 5.37258 -6 12 -6H56V70H12C5.37258 70 0 64.6274 0 58V6Z" fill="#FFF0F1"/>
<path fill-rule="evenodd" clip-rule="evenodd" d="M26.6745 23.0001C26.8073 23.0001 26.9137 23.0005 27 23.0014L27 26.432C27 26.6844 26.9999 26.9301 27.017 27.1383C27.0356 27.3669 27.0797 27.6366 27.218 27.9081C27.4097 28.2844 27.7157 28.5903 28.092 28.7821C28.3635 28.9204 28.6332 28.9644 28.8618 28.9831C29.0699 29.0001 29.3157 29.0001 29.5681 29.0001L32.9987 29.0001C32.9996 29.0863 33 29.1928 33 29.3256V31.1739C33.7204 31.3441 34.3945 31.6341 35 32.0218L35.0001 29.2423C35.0004 28.8354 35.0008 28.4766 34.9171 28.1282C34.8436 27.8221 34.7224 27.5294 34.5579 27.261C34.3707 26.9555 34.1168 26.7021 33.8288 26.4146L29.5855 22.1713C29.2981 21.8833 29.0446 21.6294 28.7391 21.4422C28.4707 21.2777 28.178 21.1565 27.8719 21.083C27.5235 20.9993 27.1647 20.9997 26.7578 21.0001L21.1615 21.0001C20.6343 21.0001 20.1795 21.0001 19.805 21.0307C19.4096 21.063 19.0164 21.1343 18.638 21.3271C18.0735 21.6147 17.6146 22.0736 17.327 22.6381C17.1342 23.0165 17.0629 23.4097 17.0306 23.8051C17 24.1796 17 24.6344 17 25.1615V38.8386C17 39.3658 17 39.8206 17.0306 40.1951C17.0629 40.5905 17.1342 40.9837 17.327 41.3621C17.6146 41.9266 18.0735 42.3855 18.638 42.6731C19.0164 42.8659 19.4096 42.9372 19.805 42.9695C20.1795 43.0001 20.6343 43.0001 21.1614 43.0001H28.0345C27.2257 42.4895 26.5375 41.8054 26.0219 41.0001H21.2C20.6235 41.0001 20.2512 40.9993 19.9678 40.9762C19.6962 40.954 19.5955 40.9163 19.546 40.8911C19.3579 40.7952 19.2049 40.6423 19.109 40.4541C19.0838 40.4046 19.0461 40.3039 19.0239 40.0323C19.0008 39.7489 19 39.3767 19 38.8001V25.2001C19 24.6235 19.0008 24.2513 19.0239 23.9679C19.0461 23.6963 19.0838 23.5956 19.109 23.5461C19.2049 23.3579 19.3579 23.205 19.546 23.1091C19.5955 23.0839 19.6962 23.0462 19.9678 23.024C20.2512 23.0009 20.6235 23.0001 21.2 23.0001H26.6745ZM29 24.4143L31.5858 27.0001H29.6C29.3035 27.0001 29.1412 26.9993 29.0246 26.9898L29.0115 26.9886L29.0103 26.9754C29.0008 26.8589 29 26.6966 29 26.4001V24.4143Z" fill="#C62F35"/>
<path fill-rule="evenodd" clip-rule="evenodd" d="M31.5 43C34.5376 43 37 40.5376 37 37.5C37 34.4624 34.5376 32 31.5 32C28.4624 32 26 34.4624 26 37.5C26 40.5376 28.4624 43 31.5 43ZM34.6405 35.8829C34.8653 35.6395 34.8501 35.2599 34.6066 35.0351C34.3631 34.8103 33.9835 34.8255 33.7587 35.069L30.4622 38.6402L29.2421 37.3184C29.0173 37.0749 28.6377 37.0597 28.3942 37.2844C28.1507 37.5092 28.1355 37.8888 28.3603 38.1323L30.0214 39.9318C30.1349 40.0548 30.2948 40.1248 30.4622 40.1248C30.6297 40.1248 30.7895 40.0548 30.9031 39.9318L34.6405 35.8829Z" fill="#C62F35"/>
</svg>
