<svg width="24" height="25" viewBox="0 0 24 25" fill="none" xmlns="http://www.w3.org/2000/svg">
<path d="M17.7071 8.28328C18.0976 7.89275 18.0976 7.25959 17.7071 6.86907C17.3166 6.47854 16.6834 6.47854 16.2929 6.86907L12 11.162L7.70711 6.86907C7.31658 6.47854 6.68342 6.47854 6.29289 6.86907C5.90237 7.25959 5.90237 7.89275 6.29289 8.28328L10.5858 12.5762L6.29289 16.8691C5.90237 17.2596 5.90237 17.8928 6.29289 18.2833C6.68342 18.6738 7.31658 18.6738 7.70711 18.2833L12 13.9904L16.2929 18.2833C16.6834 18.6738 17.3166 18.6738 17.7071 18.2833C18.0976 17.8928 18.0976 17.2596 17.7071 16.8691L13.4142 12.5762L17.7071 8.28328Z" fill="#1D2330"/>
</svg>
