<svg width="56" height="64" viewBox="0 0 56 64" fill="none" xmlns="http://www.w3.org/2000/svg">
<path d="M0 11.5C0 4.87258 5.37258 -0.5 12 -0.5H56V64.5H12C5.37258 64.5 0 59.1274 0 52.5V11.5Z" fill="#E8FDF5"/>
<path d="M31.7448 23.5H30.5851C30.4769 22.1666 29.3604 21.1182 27.999 21.1182C26.6377 21.1182 25.5212 22.1666 25.4129 23.5H24.2552C23.6171 23.5 23.0785 23.5 22.6373 23.536C22.1753 23.5738 21.7327 23.656 21.3115 23.8706C20.6718 24.1965 20.1516 24.7167 19.8257 25.3564C19.6111 25.7776 19.5289 26.2202 19.4911 26.6823C19.4551 27.1234 19.4551 27.662 19.4551 28.3V38.6999C19.4551 39.3379 19.4551 39.8766 19.4911 40.3177C19.5289 40.7798 19.6111 41.2224 19.8257 41.6436C20.1516 42.2833 20.6718 42.8035 21.3115 43.1294C21.7327 43.344 22.1753 43.4262 22.6373 43.464C23.0785 43.5 23.6171 43.5 24.2551 43.5H30.0343C29.2256 42.9894 28.5374 42.3053 28.0218 41.5H24.2951C23.6065 41.5 23.1502 41.4992 22.8002 41.4706C22.4618 41.443 22.3117 41.3944 22.2195 41.3474C21.9561 41.2132 21.7419 40.999 21.6077 40.7356C21.5607 40.6434 21.5121 40.4932 21.4845 40.1549C21.4559 39.8048 21.4551 39.3486 21.4551 38.66V28.34C21.4551 27.6514 21.4559 27.1952 21.4845 26.8451C21.5121 26.5068 21.5607 26.3566 21.6077 26.2644C21.7419 26.001 21.9561 25.7868 22.2195 25.6526C22.3117 25.6056 22.4618 25.557 22.8002 25.5294C23.1502 25.5008 23.6065 25.5 24.2951 25.5H31.7049C32.3935 25.5 32.8498 25.5008 33.1998 25.5294C33.5382 25.557 33.6883 25.6056 33.7805 25.6526C34.0439 25.7868 34.2581 26.001 34.3923 26.2644C34.4393 26.3566 34.4879 26.5068 34.5156 26.8451C34.5441 27.1952 34.5449 27.6514 34.5449 28.34V31.5835C35.257 31.6986 35.9303 31.9293 36.5449 32.2558V28.3001C36.5449 27.6621 36.545 27.1234 36.5089 26.6823C36.4712 26.2202 36.3889 25.7776 36.1743 25.3564C35.8484 24.7167 35.3282 24.1965 34.6885 23.8706C34.2673 23.656 33.8247 23.5738 33.3627 23.536C32.9215 23.5 32.3829 23.5 31.7448 23.5Z" fill="#006F4A"/>
<path fill-rule="evenodd" clip-rule="evenodd" d="M39 38C39 41.0376 36.5376 43.5 33.5 43.5C30.4624 43.5 28 41.0376 28 38C28 34.9624 30.4624 32.5 33.5 32.5C36.5376 32.5 39 34.9624 39 38ZM36.6066 35.5361C36.8501 35.7608 36.8653 36.1404 36.6405 36.3839L32.9031 40.4328C32.7895 40.5558 32.6297 40.6258 32.4622 40.6258C32.2948 40.6258 32.1349 40.5558 32.0214 40.4328L30.3603 38.6333C30.1355 38.3898 30.1507 38.0102 30.3942 37.7854C30.6377 37.5607 31.0173 37.5758 31.2421 37.8193L32.4622 39.1412L35.7587 35.57C35.9835 35.3265 36.3631 35.3113 36.6066 35.5361Z" fill="#006F4A"/>
</svg>
