<svg width="56" height="64" viewBox="0 0 56 64" fill="none" xmlns="http://www.w3.org/2000/svg">
<path d="M0 5.5C0 -1.12742 5.37258 -6.5 12 -6.5H56V70.5H12C5.37258 70.5 0 65.1274 0 58.5V5.5Z" fill="#E5FAFF"/>
<path d="M24.8572 27.1736C24.8193 26.5967 25.2769 26.1079 25.8551 26.1079H26.1453C26.7235 26.1079 27.1811 26.5967 27.1432 27.1736L26.8335 31.8805C26.8197 32.0908 26.6451 32.2543 26.4344 32.2543H25.566C25.3553 32.2543 25.1807 32.0908 25.1669 31.8805L24.8572 27.1736Z" fill="#0D75B5"/>
<path d="M26.0002 35.4892C26.6702 35.4892 27.2133 34.9461 27.2133 34.2761C27.2133 33.6062 26.6702 33.063 26.0002 33.063C25.3303 33.063 24.7871 33.6062 24.7871 34.2761C24.7871 34.9461 25.3303 35.4892 26.0002 35.4892Z" fill="#0D75B5"/>
<path fill-rule="evenodd" clip-rule="evenodd" d="M23.3572 22.5H28.6428C29.7266 22.5 30.6007 22.5 31.3086 22.5578C32.0375 22.6174 32.6777 22.7432 33.27 23.045C34.2108 23.5243 34.9757 24.2892 35.455 25.23C35.7568 25.8223 35.8826 26.4625 35.9422 27.1914C36 27.8992 36 28.7733 36 29.8571V32.1428C36 33.2266 36 34.1008 35.9422 34.8086C35.8826 35.5375 35.7568 36.1777 35.455 36.77C34.9757 37.7108 34.2108 38.4757 33.27 38.955C32.6777 39.2568 32.0375 39.3826 31.3086 39.4422C30.6008 39.5 29.7267 39.5 28.6429 39.5H26.5613C26.4497 39.5 26.3945 39.5002 26.3544 39.5018L26.3514 39.5019L26.3491 39.5036C26.3167 39.5275 26.2735 39.5618 26.1864 39.6315L22.1285 42.8779C22.0611 42.9319 21.9653 43.0086 21.8754 43.0681C21.7935 43.1222 21.5458 43.2835 21.2013 43.2839C20.8358 43.2843 20.4901 43.1181 20.2621 42.8325C20.0473 42.5633 20.0184 42.269 20.0096 42.1713C19.9998 42.064 19.9999 41.9412 20 41.8549L20 39.4171C17.7235 38.9935 16 36.9968 16 34.5976V29.8572C16 28.7734 16 27.8993 16.0578 27.1914C16.1174 26.4625 16.2432 25.8223 16.545 25.23C17.0243 24.2892 17.7892 23.5243 18.73 23.045C19.3223 22.7432 19.9625 22.6174 20.6914 22.5578C21.3993 22.5 22.2734 22.5 23.3572 22.5ZM20.8542 24.5512C20.2491 24.6006 19.9014 24.6928 19.638 24.827C19.0735 25.1146 18.6146 25.5735 18.327 26.138C18.1928 26.4014 18.1006 26.7491 18.0512 27.3542C18.0008 27.9711 18 28.7634 18 29.9V34.5976C18 36.2005 19.2995 37.5 20.9024 37.5C21.5086 37.5 22 37.9914 22 38.5976V40.4194L24.937 38.0697L24.9708 38.0426C25.097 37.9412 25.256 37.8134 25.4409 37.719C25.6014 37.637 25.7722 37.5771 25.9487 37.5408C26.1521 37.4991 26.356 37.4996 26.5179 37.4999L26.5613 37.5H28.6C29.7366 37.5 30.5289 37.4992 31.1458 37.4488C31.7509 37.3994 32.0986 37.3072 32.362 37.173C32.9265 36.8854 33.3854 36.4265 33.673 35.862C33.8072 35.5986 33.8994 35.2509 33.9488 34.6458C33.9992 34.0289 34 33.2366 34 32.1V29.9C34 28.7634 33.9992 27.9711 33.9488 27.3542C33.8994 26.7491 33.8072 26.4014 33.673 26.138C33.3854 25.5735 32.9265 25.1146 32.362 24.827C32.0986 24.6928 31.7509 24.6006 31.1458 24.5512C30.5289 24.5008 29.7366 24.5 28.6 24.5H23.4C22.2634 24.5 21.4711 24.5008 20.8542 24.5512Z" fill="#0D75B5"/>
</svg>
