<svg width="138" height="20" viewBox="0 0 138 20" fill="none" xmlns="http://www.w3.org/2000/svg">
<path d="M136.073 17.1094H112.194C111.925 17.9636 111.326 18.6577 110.555 19.0703L134.663 18.583C135.431 18.5676 136.085 18.0348 136.235 17.3018C136.256 17.2022 136.178 17.1094 136.073 17.1094Z" fill="#FFD700"/>
<path d="M112.196 17.1094H88.3004C88.2998 17.1129 88.3004 17.116 88.2996 17.1195C88.0336 18.2848 86.7663 19.1158 86.0586 19.5653L99.4589 19.2945L110.557 19.0703C111.329 18.6577 111.928 17.9636 112.196 17.1094Z" fill="#00D1FF"/>
<path d="M67.7276 17.1094C66.5501 17.1094 65.4922 17.6899 64.8662 18.5946C64.7083 18.8226 64.5808 19.0725 64.4827 19.3373C64.4261 19.4897 64.3767 19.6455 64.3431 19.8083C64.3223 19.9092 64.403 20.0028 64.5086 20.0007L80.8998 19.6695L86.0592 19.5653C87.1656 19.1924 88.0343 18.2848 88.3002 17.1195C88.3009 17.116 88.3004 17.1129 88.3011 17.1094H67.7276Z" fill="#6559FF"/>
<path fill-rule="evenodd" clip-rule="evenodd" d="M33.6601 4.65454L33.4335 5.75709C33.2789 6.50896 32.6005 7.05026 31.8125 7.05026H30.8624C30.7837 7.05026 30.7157 7.10431 30.7004 7.17959L29.4527 13.2504C29.2981 14.0022 28.6197 14.5435 27.8317 14.5435H26.0355C25.8269 14.5435 25.6704 14.3577 25.7114 14.1588L27.1326 7.24265C27.1531 7.14308 27.0749 7.05026 26.9706 7.05026H25.7933C25.5847 7.05026 25.4282 6.86447 25.4692 6.66532L25.8021 5.0456C25.8948 4.59438 26.3018 4.26976 26.7746 4.26976H27.6469C27.7257 4.26976 27.7935 4.21555 27.8091 4.14043L27.9955 3.23284C28.202 2.19609 28.6475 1.39821 29.3322 0.838896C30.0165 0.279578 30.9172 0 32.0345 0H34.1969C34.4058 0 34.5624 0.186278 34.5209 0.385586L34.3081 1.40674C34.1517 2.15668 33.4743 2.69573 32.688 2.69573H32.4025C32.1183 2.69573 31.8795 2.77439 31.6857 2.93123C31.492 3.08839 31.3692 3.30218 31.3178 3.57226L31.2193 4.07898C31.1999 4.17807 31.2781 4.26976 31.3818 4.26976H33.336C33.5446 4.26976 33.701 4.4554 33.6601 4.65454ZM41.028 8.18128H36.9997C36.8708 8.18128 36.7915 8.04358 36.8576 7.93581C37.0958 7.547 37.3922 7.22994 37.7464 6.98431C38.1726 6.68897 38.6696 6.54129 39.2381 6.54129C39.8125 6.54129 40.2696 6.68124 40.6086 6.96066C40.9049 7.20501 41.0986 7.54668 41.1903 7.98535C41.2113 8.08589 41.1335 8.18128 41.028 8.18128ZM39.5867 3.77961C38.631 3.77961 37.7382 3.9445 36.9087 4.27443C36.0787 4.60435 35.3748 5.05364 34.7971 5.62229C34.219 6.1911 33.7638 6.868 33.4315 7.65349C33.0988 8.43914 32.9326 9.27466 32.9326 10.1607C32.9326 11.034 33.1326 11.829 33.5332 12.5453C33.9334 13.2616 34.5048 13.8287 35.2475 14.2466C35.9899 14.6645 36.8293 14.8735 37.7658 14.8735C39.1475 14.8735 40.3921 14.5326 41.4996 13.8507C42.4533 13.2636 43.1087 12.6764 43.6231 11.7502C43.7421 11.5357 43.5821 11.2743 43.3317 11.2743H40.57C40.3904 11.2743 40.2228 11.3503 40.096 11.474C39.9395 11.6269 39.7809 11.7031 39.5321 11.8227L39.4735 11.8509C39.0956 12.0333 38.6763 12.0363 38.2308 12.0363C37.5978 12.0363 37.1135 11.8793 36.7779 11.565C36.4744 11.2813 36.3053 10.8743 36.2709 10.3442C36.2648 10.2505 36.3397 10.17 36.4362 10.17H42.8998C43.7744 10.17 44.5123 9.50743 44.5506 8.65711C44.5549 8.56333 44.5566 8.47067 44.5554 8.37914C44.5554 7.05959 44.0954 5.96316 43.1753 5.08968C42.2551 4.21652 41.0589 3.77961 39.5867 3.77961ZM134.472 8.18128H130.444C130.315 8.18128 130.236 8.04358 130.302 7.93581C130.54 7.547 130.836 7.22994 131.191 6.98431C131.617 6.68897 132.114 6.54129 132.682 6.54129C133.257 6.54129 133.714 6.68124 134.053 6.96066C134.349 7.20501 134.543 7.54668 134.635 7.98535C134.656 8.08589 134.578 8.18128 134.472 8.18128ZM136.62 5.08968C135.699 4.21652 134.503 3.77961 133.031 3.77961C132.075 3.77961 131.182 3.9445 130.353 4.27443C129.523 4.60435 128.819 5.05364 128.241 5.62229C127.663 6.1911 127.208 6.868 126.876 7.65349C126.543 8.43914 126.377 9.27466 126.377 10.1607C126.377 11.034 126.577 11.829 126.977 12.5453C127.378 13.2616 127.949 13.8287 128.692 14.2466C129.434 14.6645 130.274 14.8735 131.21 14.8735C132.592 14.8735 133.836 14.5326 134.944 13.8507C135.897 13.2636 136.553 12.6764 137.067 11.7502C137.186 11.5357 137.026 11.2743 136.776 11.2743H134.014C133.835 11.2743 133.667 11.3503 133.54 11.474C133.384 11.6271 133.225 11.7033 132.975 11.8232L132.918 11.8509C132.54 12.0333 132.12 12.0363 131.675 12.0363C131.042 12.0363 130.558 11.8793 130.222 11.565C129.886 11.2509 129.715 10.786 129.709 10.17H136.344C137.219 10.17 137.956 9.50743 137.995 8.65711C137.999 8.56333 138.001 8.47067 138 8.37914C138 7.05959 137.54 5.96316 136.62 5.08968ZM98.9019 0.358073H97.1153C96.3275 0.358073 95.6489 0.899374 95.4945 1.65124L93.082 13.389C92.9592 13.9863 93.4287 14.5435 94.0545 14.5435H96.1187C96.2764 14.5435 96.4119 14.4353 96.4428 14.2849L99.2261 0.742854C99.2671 0.543868 99.1105 0.358073 98.9019 0.358073ZM104.948 4.11887H107.105C107.313 4.11887 107.469 4.30419 107.429 4.50317L107.18 5.72588C107.027 6.4792 106.348 7.02195 105.559 7.02195H104.32C104.241 7.02195 104.173 7.07696 104.158 7.15177C103.73 9.17975 103.517 10.2709 103.517 10.4245C103.517 10.7512 103.62 11.001 103.826 11.1738C104.033 11.3469 104.33 11.4331 104.718 11.4331H105.622C105.831 11.4331 105.987 11.6187 105.946 11.8179L105.652 13.2504C105.497 14.0022 104.819 14.5435 104.031 14.5435H103.391C102.286 14.5435 101.42 14.2593 100.79 13.6905C100.161 13.1218 99.8456 12.3507 99.8456 11.3765C99.8456 11.1378 99.8762 10.8473 99.9377 10.5046C99.9989 10.1621 100.146 9.42233 100.378 8.28488C100.467 7.85763 100.541 7.50052 100.6 7.21322C100.621 7.11364 100.543 7.02195 100.438 7.02195H99.0383C98.8297 7.02195 98.6731 6.83615 98.7141 6.63717L98.7996 6.2207L104.536 1.15788C104.597 1.10416 104.676 1.0744 104.758 1.0744H104.964C105.172 1.0744 105.329 1.25971 105.288 1.4587L104.786 3.9268C104.766 4.02622 104.844 4.11887 104.948 4.11887ZM53.3755 4.11887H51.2188C51.1147 4.11887 51.0365 4.02622 51.0567 3.9268L51.5592 1.4587C51.5997 1.25971 51.4433 1.0744 51.235 1.0744H51.029C50.9469 1.0744 50.8677 1.10416 50.8069 1.15788L45.0705 6.2207L44.9851 6.63717C44.9441 6.83615 45.1006 7.02195 45.3092 7.02195H46.709C46.8135 7.02195 46.892 7.11364 46.8713 7.21322C46.8122 7.50052 46.7381 7.85763 46.6493 8.28488C46.4169 9.42233 46.2698 10.1621 46.2086 10.5046C46.1471 10.8473 46.1166 11.1378 46.1166 11.3765C46.1166 12.3507 46.4315 13.1218 47.0609 13.6905C47.6906 14.2593 48.5574 14.5435 49.6617 14.5435H50.3017C51.0897 14.5435 51.7681 14.0022 51.9227 13.2504L52.2171 11.8179C52.2579 11.6187 52.1015 11.4331 51.8929 11.4331H50.9885C50.6011 11.4331 50.3039 11.3469 50.0974 11.1738C49.8906 11.001 49.7875 10.7512 49.7875 10.4245C49.7875 10.2709 50.0012 9.17975 50.4285 7.15177C50.4442 7.07696 50.5121 7.02195 50.5907 7.02195H51.8294C52.6186 7.02195 53.2977 6.4792 53.4509 5.72588L53.6999 4.50317C53.7404 4.30419 53.584 4.11887 53.3755 4.11887ZM116.92 4.11887H118.715C118.924 4.11887 119.08 4.3045 119.039 4.50349L117.849 10.3114C117.552 11.7503 116.874 12.8704 115.816 13.6717C114.756 14.4727 113.439 14.8733 111.864 14.8733C110.501 14.8733 109.41 14.5073 108.59 13.7753C107.77 13.0433 107.36 12.0867 107.36 10.9053C107.36 10.5847 107.397 10.2234 107.471 9.82126C107.545 9.41927 107.77 8.332 108.144 6.56011C108.231 6.14332 108.311 5.75805 108.386 5.40448C108.543 4.65567 109.22 4.11887 110.005 4.11887H111.8C112.008 4.11887 112.165 4.30499 112.124 4.50413C111.387 8.08733 111.004 9.97923 110.973 10.1795C110.953 10.3241 110.944 10.4467 110.944 10.5471C110.944 11.3451 111.402 11.744 112.319 11.744C112.835 11.744 113.283 11.5603 113.66 11.1928C114.038 10.825 114.288 10.346 114.411 9.75531L115.299 5.41349C115.453 4.66097 116.132 4.11887 116.92 4.11887ZM93.3768 4.11887H91.5816C90.7931 4.11887 90.1144 4.66097 89.9605 5.41349L89.0726 9.75531C88.9498 10.346 88.6997 10.825 88.322 11.1928C87.9441 11.5603 87.4968 11.744 86.9804 11.744C86.0634 11.744 85.6051 11.3451 85.6051 10.5471C85.6051 10.4467 85.6148 10.3241 85.6342 10.1795C85.6652 9.97923 86.0487 8.08733 86.785 4.50413C86.826 4.30499 86.6696 4.11887 86.461 4.11887H84.6666C83.8813 4.11887 83.2045 4.65567 83.0473 5.40448C82.9731 5.75805 82.8926 6.14332 82.806 6.56011C82.4312 8.332 82.2068 9.41927 82.1327 9.82126C82.0583 10.2234 82.0213 10.5847 82.0213 10.9053C82.0213 12.0867 82.4312 13.0433 83.2515 13.7753C84.0714 14.5073 85.1625 14.8733 86.5253 14.8733C88.1006 14.8733 89.4179 14.4727 90.477 13.6717C91.5358 12.8704 92.2139 11.7503 92.5109 10.3114L93.701 4.50349C93.7418 4.3045 93.5854 4.11887 93.3768 4.11887ZM127.201 4.45636L126.895 5.95334C126.741 6.70601 126.063 7.24828 125.274 7.24828H125.236C124.577 7.24828 124.067 7.38968 123.706 7.67247C123.344 7.95527 123.089 8.41388 122.94 9.04848L121.86 14.2852C121.829 14.4354 121.694 14.5437 121.536 14.5437H119.472C118.846 14.5437 118.377 13.9865 118.499 13.3893L120.137 5.41236C120.292 4.66033 120.97 4.11903 121.758 4.11903H122.496C122.644 4.11903 122.774 4.2149 122.814 4.35373L122.987 4.95374C123.019 5.06281 123.155 5.10946 123.246 5.039C124.081 4.39426 125.08 4.0719 126.243 4.0719H126.877C127.085 4.0719 127.242 4.25737 127.201 4.45636ZM7.29341 0.753479C6.0986 0.753479 5.05751 0.932518 4.16983 1.29076C3.28166 1.64884 2.57945 2.20188 2.06304 2.94957C1.5463 3.69757 1.28827 4.59904 1.28827 5.65478C1.28827 6.96195 2.11544 7.90669 3.3172 8.40697C3.83779 8.62364 4.3864 8.762 4.93546 8.90047L4.93547 8.90047L4.93547 8.90048C5.33988 9.00247 5.74454 9.10453 6.13843 9.23798C6.90891 9.49922 7.54186 10.0392 7.13339 10.8785C6.82676 11.5084 6.05727 11.7971 5.37771 11.7971C4.37663 11.7971 3.93808 10.9642 3.77691 10.5279C3.72203 10.3793 3.56334 10.2936 3.40398 10.3236L0.402074 10.8912C0.146515 10.9396 -0.025897 11.1712 0.0031964 11.4228C0.10866 12.3331 0.526713 13.3385 1.26397 13.9162C2.12602 14.5916 3.30596 14.9294 4.8041 14.9294C6.03727 14.9294 7.12695 14.7346 8.07314 14.345C9.74023 13.6583 10.919 12.1457 11.1139 10.3862C11.2013 9.59783 11.045 8.79143 10.6314 8.13141C10.4145 7.7854 10.127 7.4796 9.76684 7.2375C9.07257 6.77113 8.2618 6.56566 7.45204 6.36045L7.45203 6.36045L7.45203 6.36045L7.45202 6.36044L7.45202 6.36044C6.99124 6.24367 6.53079 6.12698 6.09231 5.96235C5.72435 5.82433 5.26381 5.63853 5.12364 5.24539C4.94296 4.73883 5.28695 4.21153 5.74782 3.98294C6.14901 3.78363 6.72096 3.73538 7.15836 3.83125C7.68567 3.94675 7.99297 4.33861 8.04637 4.81347C8.06686 4.99541 8.25151 5.11654 8.43632 5.08163L11.3599 4.52891C11.6123 4.48113 11.7849 4.25303 11.7594 4.00418C11.4804 1.27483 8.63121 0.753479 7.29341 0.753479ZM63.449 4.11887H65.2208C65.7404 4.11887 66.0569 4.67529 65.7812 5.10383L61.963 11.0379L59.3008 15.1757L58.4613 16.4803L58.3467 16.6593L58.1764 16.9249L57.2064 18.4388L56.7317 19.1797L56.3049 19.846C56.2943 19.8624 56.2816 19.8759 56.2683 19.8887C56.1561 19.9972 55.9592 19.975 55.882 19.8288L55.527 19.1553L55.3231 18.7689C55.2592 18.6476 55.2039 18.5236 55.1568 18.3973C54.9798 17.9226 54.9238 17.4183 54.9836 16.9249C54.9943 16.836 55.0076 16.7473 55.0259 16.6593C55.099 16.3095 55.2309 15.9691 55.4241 15.6535L56.1946 14.3949L56.6414 13.6647L54.3705 4.91996C54.265 4.51346 54.5808 4.11887 55.0117 4.11887H56.5009C57.2874 4.11887 57.965 4.65808 58.1211 5.40818L58.9464 9.37343C58.9722 9.49729 59.1205 9.53799 59.2109 9.46737C59.2258 9.45579 59.2393 9.44195 59.2502 9.4241L62.0303 4.90162C62.3289 4.41614 62.8676 4.11887 63.449 4.11887ZM76.7574 4.66564C77.1627 5.01101 77.4414 5.46126 77.5958 6.01495C77.6414 6.17871 77.8059 6.28294 77.9771 6.25109L80.7189 5.74213C80.9744 5.69467 81.148 5.46416 81.1189 5.21257C81.0258 4.4118 80.5777 2.70618 78.5056 1.42797C77.6047 0.872189 76.5345 0.674006 75.3916 0.674006C74.21 0.674006 73.0865 0.886023 72.0211 1.31022C70.9555 1.73425 70.0384 2.30933 69.2703 3.03498C68.5018 3.76079 67.8915 4.63427 67.4397 5.65526C66.9874 6.67657 66.7616 7.75885 66.7616 8.90242C66.7616 10.0209 67.0183 11.0311 67.5316 11.9327C68.98 14.4761 72.3413 15.3866 75.1057 14.7467C77.4721 14.199 80.6192 12.318 81.0405 8.68043C81.0929 8.22873 80.6012 8.13061 80.3724 8.50895C78.6881 11.2954 74.0628 13.3704 71.5467 10.9441C69.8508 9.30892 70.4615 7.0961 71.5877 5.6995C72.7069 4.31158 75.2253 3.36169 76.7574 4.66564ZM17.5569 11.763C18.3444 11.763 19.0306 11.4677 19.6151 10.877C20.1993 10.2865 20.4917 9.59847 20.4917 8.81283C20.4917 8.23469 20.3028 7.76819 19.9251 7.41317C19.5473 7.0583 19.0485 6.88055 18.4286 6.88055C17.6472 6.88055 16.9675 7.17429 16.3897 7.76191C15.8117 8.34954 15.5229 9.04238 15.5229 9.84025C15.5229 10.4184 15.7069 10.8833 16.075 11.2352C16.4431 11.5872 16.937 11.763 17.5569 11.763ZM22.6787 4.11888H23.815C24.4408 4.11888 24.9103 4.67594 24.7876 5.27322L23.1496 13.25C22.9952 14.0021 22.3167 14.5435 21.5287 14.5435H20.6144C20.4582 14.5435 20.3233 14.4372 20.2909 14.2884L20.2236 13.9789C20.1991 13.8665 20.0661 13.8166 19.9679 13.8806C18.9509 14.5424 17.8406 14.8735 16.6367 14.8735C15.2676 14.8735 14.1393 14.4446 13.2516 13.5869C12.3636 12.7292 11.9198 11.606 11.9198 10.2171C11.9198 9.30619 12.0941 8.44847 12.4428 7.644C12.7916 6.83969 13.2595 6.15812 13.8472 5.59864C14.4347 5.03949 15.1223 4.59824 15.9103 4.27443C16.698 3.95078 17.5212 3.78895 18.3801 3.78895C19.6523 3.78895 20.698 4.18579 21.5171 4.97868C21.5933 5.05252 21.7189 5.04158 21.776 4.95294L22.1183 4.42081C22.2391 4.23309 22.4509 4.11888 22.6787 4.11888Z" fill="#293745"/>
</svg>
