<svg width="56" height="64" viewBox="0 0 56 64" fill="none" xmlns="http://www.w3.org/2000/svg">
<path d="M0 7C0 0.372585 5.37258 -5 12 -5H56V69H12C5.37258 69 0 63.6274 0 57V7Z" fill="#FFFAE5"/>
<path fill-rule="evenodd" clip-rule="evenodd" d="M30.0002 23C27.2388 23 25.0002 25.2386 25.0002 28C25.0002 28.4107 25.0495 28.8085 25.1421 29.1884L25.1468 29.2077C25.2023 29.4358 25.2511 29.6359 25.2836 29.7976C25.3145 29.9511 25.3513 30.1623 25.3363 30.3816C25.3159 30.6801 25.2544 30.8996 25.1167 31.1652C24.9704 31.4475 24.7215 31.6947 24.5158 31.8989C24.4951 31.9195 24.4748 31.9396 24.4552 31.9593L18.2073 38.2071C17.7694 38.645 17.7694 39.355 18.2073 39.7929C18.6452 40.2308 19.3552 40.2308 19.7931 39.7929L26.0409 33.5451C26.0606 33.5254 26.0807 33.5051 26.1013 33.4844C26.3056 33.2787 26.5527 33.0298 26.835 32.8835C27.1007 32.7458 27.3201 32.6843 27.6186 32.6639C27.838 32.6489 28.0491 32.6858 28.2026 32.7166C28.3643 32.7491 28.5645 32.7979 28.7925 32.8534L28.8118 32.8582C29.1917 32.9507 29.5895 33 30.0002 33C32.7617 33 35.0002 30.7614 35.0002 28C35.0002 27.8121 34.9899 27.6268 34.9698 27.4446L33.3161 29.0983C33.1377 29.2768 32.9639 29.4506 32.8047 29.5858C32.6299 29.7342 32.408 29.8938 32.1183 29.9879C31.7166 30.1184 31.2839 30.1184 30.8822 29.9879C30.5925 29.8938 30.3706 29.7342 30.1957 29.5858C30.0365 29.4506 29.8627 29.2768 29.6843 29.0983L28.9019 28.3159C28.7234 28.1375 28.5496 27.9637 28.4145 27.8045C28.266 27.6296 28.1065 27.4078 28.0123 27.118C27.8818 26.7163 27.8818 26.2837 28.0123 25.882C28.1065 25.5922 28.266 25.3704 28.4145 25.1955C28.5496 25.0363 28.7235 24.8625 28.9019 24.6841L30.5556 23.0304C30.3734 23.0103 30.1881 23 30.0002 23ZM23.0002 28C23.0002 24.134 26.1342 21 30.0002 21C31.0255 21 32.0019 21.2211 32.882 21.6191C33.1812 21.7544 33.3949 22.0279 33.4538 22.3509C33.5126 22.6739 33.4092 23.0052 33.1771 23.2374L30.3387 26.0757C30.129 26.2854 30.0148 26.4007 29.9391 26.4899C29.9361 26.4934 29.9333 26.4968 29.9306 26.5C29.9333 26.5032 29.9361 26.5066 29.9391 26.5101C30.0148 26.5993 30.129 26.7146 30.3387 26.9243L31.076 27.6615C31.2856 27.8712 31.4009 27.9854 31.4901 28.0611C31.4936 28.0641 31.497 28.0669 31.5002 28.0696C31.5034 28.0669 31.5068 28.0641 31.5104 28.0611C31.5995 27.9854 31.7148 27.8712 31.9245 27.6615L34.7629 24.8232C34.995 24.591 35.3263 24.4876 35.6493 24.5465C35.9723 24.6054 36.2458 24.819 36.3811 25.1182C36.7792 25.9983 37.0002 26.9747 37.0002 28C37.0002 31.866 33.8662 35 30.0002 35C29.4288 35 28.8721 34.9313 28.3385 34.8013C28.0854 34.7397 27.9254 34.7009 27.8084 34.6774C27.7868 34.673 27.7691 34.6698 27.7549 34.6673C27.7512 34.6706 27.7471 34.6742 27.7426 34.6783C27.6805 34.7344 27.599 34.8155 27.4552 34.9593L21.2073 41.2071C19.9884 42.4261 18.0121 42.4261 16.7931 41.2071C15.5742 39.9882 15.5742 38.0118 16.7931 36.7929L23.0409 30.5451C23.1848 30.4013 23.2659 30.3197 23.322 30.2576C23.326 30.2531 23.3296 30.2491 23.3329 30.2453C23.3305 30.2311 23.3272 30.2134 23.3228 30.1918C23.2993 30.0749 23.2605 29.9148 23.1989 29.6618C23.0689 29.1281 23.0002 28.5714 23.0002 28ZM23.3502 30.2285C23.3485 30.2333 23.3467 30.239 23.3449 30.2453L23.3445 30.2468C23.3427 30.2531 23.3413 30.2589 23.3403 30.2639L23.34 30.265" fill="#D97502"/>
</svg>
