<svg width="56" height="64" viewBox="0 0 56 64" fill="none" xmlns="http://www.w3.org/2000/svg">
<path d="M0 12.5C0 5.87258 5.37258 0.5 12 0.5H56V63.5H12C5.37258 63.5 0 58.1274 0 51.5V12.5Z" fill="#F8F9FC"/>
<path fill-rule="evenodd" clip-rule="evenodd" d="M16 32.5C16 31.9477 16.4477 31.5 17 31.5H35C35.5523 31.5 36 31.9477 36 32.5C36 33.0523 35.5523 33.5 35 33.5H17C16.4477 33.5 16 33.0523 16 32.5Z" fill="#545F70"/>
<path fill-rule="evenodd" clip-rule="evenodd" d="M16 26.5C16 25.9477 16.4477 25.5 17 25.5H35C35.5523 25.5 36 25.9477 36 26.5C36 27.0523 35.5523 27.5 35 27.5H17C16.4477 27.5 16 27.0523 16 26.5Z" fill="#545F70"/>
<path fill-rule="evenodd" clip-rule="evenodd" d="M16 38.5C16 37.9477 16.4477 37.5 17 37.5H35C35.5523 37.5 36 37.9477 36 38.5C36 39.0523 35.5523 39.5 35 39.5H17C16.4477 39.5 16 39.0523 16 38.5Z" fill="#545F70"/>
</svg>
