<svg width="56" height="64" viewBox="0 0 56 64" fill="none" xmlns="http://www.w3.org/2000/svg">
<path d="M0 6C0 -0.627417 5.37258 -6 12 -6H56V70H12C5.37258 70 0 64.6274 0 58V6Z" fill="#E0E4FF"/>
<path fill-rule="evenodd" clip-rule="evenodd" d="M26 21C19.9249 21 15 25.9249 15 32C15 38.0751 19.9249 43 26 43C32.0751 43 37 38.0751 37 32C37 25.9249 32.0751 21 26 21ZM31.2071 29.7071C31.5976 29.3166 31.5976 28.6834 31.2071 28.2929C30.8166 27.9024 30.1834 27.9024 29.7929 28.2929L24.5 33.5858L22.2071 31.2929C21.8166 30.9024 21.1834 30.9024 20.7929 31.2929C20.4024 31.6834 20.4024 32.3166 20.7929 32.7071L23.7929 35.7071C24.1834 36.0976 24.8166 36.0976 25.2071 35.7071L31.2071 29.7071Z" fill="#675DF4"/>
</svg>
