<svg width="56" height="64" viewBox="0 0 56 64" fill="none" xmlns="http://www.w3.org/2000/svg">
<path d="M0 6C0 -0.627417 5.37258 -6 12 -6H56V70H12C5.37258 70 0 64.6274 0 58V6Z" fill="#E8FDF5"/>
<g clip-path="url(#clip0_5784_159580)">
<path fill-rule="evenodd" clip-rule="evenodd" d="M25.7234 22.7025C25.9062 22.6682 26.0938 22.6682 26.2766 22.7025C26.493 22.7431 26.6861 22.8416 26.7794 22.8892L26.805 22.9022L36.4472 27.7233C36.4499 27.7247 36.4526 27.726 36.4552 27.7274L37.0052 28.0024L37.0366 28.0178C37.1506 28.0734 37.3871 28.1887 37.5718 28.3773C37.7274 28.5362 37.8457 28.7276 37.9182 28.9378C38.0043 29.1874 38.0017 29.4505 38.0005 29.5773L38.0002 29.6123V33.5321C38.0002 34.0844 37.5525 34.5321 37.0002 34.5321C36.4479 34.5321 36.0002 34.0844 36.0002 33.5321V29.7359L34 30.7358L34.0008 37.1185C34.0009 37.6179 33.7854 38.093 33.4097 38.4219C29.1683 42.1349 22.8334 42.1348 18.592 38.4219C18.2164 38.093 18.0009 37.6181 18.0008 37.1189L18 30.7358L15.5528 29.5122C15.214 29.3428 15 28.9965 15 28.6177C15 28.239 15.214 27.8927 15.5528 27.7233L25.195 22.9022L25.2206 22.8892C25.3139 22.8416 25.507 22.7431 25.7234 22.7025ZM33.7639 28.6178L31.553 27.5123C31.5503 27.511 31.5476 27.5096 31.545 27.5083L26 24.7358L18.2361 28.6177L26 32.4997L33.7639 28.6178ZM26.805 34.3333L32.0002 31.7357L32.0008 36.9961C28.5451 39.9435 23.4565 39.9434 20.0008 36.996L20.0002 31.7359L25.195 34.3333L25.2206 34.3463C25.3139 34.3939 25.507 34.4924 25.7234 34.533C25.9062 34.5673 26.0938 34.5673 26.2766 34.533C26.4931 34.4924 26.6862 34.3938 26.7795 34.3462L26.805 34.3333Z" fill="#006F4A"/>
</g>
<defs>
<clipPath id="clip0_5784_159580">
<rect width="24" height="24" fill="white" transform="translate(14 20)"/>
</clipPath>
</defs>
</svg>
